<svg width="28" height="28" viewBox="0 0 28 28" fill="none" xmlns="http://www.w3.org/2000/svg">
<path fill-rule="evenodd" clip-rule="evenodd" d="M14.0002 4.66732C8.8455 4.66732 4.66683 8.84599 4.66683 14.0007C4.66683 19.1553 8.8455 23.334 14.0002 23.334C19.1548 23.334 23.3335 19.1553 23.3335 14.0007C23.3335 8.84599 19.1548 4.66732 14.0002 4.66732ZM2.3335 14.0007C2.3335 7.55733 7.55684 2.33398 14.0002 2.33398C20.4435 2.33398 25.6668 7.55733 25.6668 14.0007C25.6668 20.444 20.4435 25.6673 14.0002 25.6673C7.55684 25.6673 2.3335 20.444 2.3335 14.0007ZM14.0002 8.16732C14.6445 8.16732 15.1668 8.68965 15.1668 9.33398V14.0007C15.1668 14.645 14.6445 15.1673 14.0002 15.1673C13.3558 15.1673 12.8335 14.645 12.8335 14.0007V9.33398C12.8335 8.68965 13.3558 8.16732 14.0002 8.16732Z" fill="black"/>
<path d="M15.1668 18.6667C15.1668 19.311 14.6445 19.8333 14.0002 19.8333C13.3558 19.8333 12.8335 19.311 12.8335 18.6667C12.8335 18.0223 13.3558 17.5 14.0002 17.5C14.6445 17.5 15.1668 18.0223 15.1668 18.6667Z" fill="black"/>
</svg>
