<svg width="40" height="40" viewBox="0 0 40 40" fill="none" xmlns="http://www.w3.org/2000/svg">
<g clip-path="url(#clip0_163_598)">
<path d="M6 10C6 7.34784 6.84285 4.8043 8.34315 2.92893C9.84344 1.05357 11.8783 0 14 0C16.1217 0 18.1566 1.05357 19.6569 2.92893C21.1571 4.8043 22 7.34784 22 10C22 12.6522 21.1571 15.1957 19.6569 17.0711C18.1566 18.9464 16.1217 20 14 20C11.8783 20 9.84344 18.9464 8.34315 17.0711C6.84285 15.1957 6 12.6522 6 10ZM0 37.6797C0 29.9844 4.9875 23.75 11.1438 23.75H16.8563C23.0125 23.75 28 29.9844 28 37.6797C28 38.9609 27.1687 40 26.1437 40H1.85625C0.83125 40 0 38.9609 0 37.6797ZM38.0812 40H29.4625C29.8 39.2656 30 38.4141 30 37.5V36.875C30 32.1328 28.3063 27.875 25.6375 25.0156C25.7875 25.0078 25.9312 25 26.0812 25H29.9188C35.4875 25 40 30.6406 40 37.6016C40 38.9297 39.1375 40 38.0812 40ZM27 20C25.0625 20 23.3125 19.0156 22.0438 17.4297C23.275 15.3516 24 12.7812 24 10C24 7.90625 23.5875 5.92969 22.8563 4.19531C24.0188 3.13281 25.45 2.5 27 2.5C30.8687 2.5 34 6.41406 34 11.25C34 16.0859 30.8687 20 27 20Z" fill="#9C9C9C"/>
</g>
<defs>
<clipPath id="clip0_163_598">
<rect width="40" height="40" fill="white"/>
</clipPath>
</defs>
</svg>
