<svg width="100" height="100" viewBox="0 0 100 100" fill="none" xmlns="http://www.w3.org/2000/svg">
<path d="M50 50C54.144 50 58.1183 48.3538 61.0485 45.4235C63.9788 42.4933 65.625 38.519 65.625 34.375C65.625 30.231 63.9788 26.2567 61.0485 23.3265C58.1183 20.3962 54.144 18.75 50 18.75C45.856 18.75 41.8817 20.3962 38.9514 23.3265C36.0212 26.2567 34.375 30.231 34.375 34.375C34.375 38.519 36.0212 42.4933 38.9514 45.4235C41.8817 48.3538 45.856 50 50 50ZM19.725 73.5187C20.725 69.5875 22.475 65.9563 24.8062 62.7688C21.4155 62.1203 17.9054 62.613 14.8242 64.17C11.7431 65.727 9.26427 68.2605 7.77499 71.375C6.92499 73.1688 8.41249 75 10.3875 75H19.4437C19.5062 74.5167 19.6 74.0229 19.725 73.5187ZM80.2937 73.5187C80.4187 74.0187 80.5146 74.5125 80.5812 75H89.6187C91.5937 75 93.0812 73.1687 92.225 71.3812C90.7375 68.2692 88.2622 65.7369 85.1848 64.179C82.1075 62.6211 78.6011 62.1253 75.2125 62.7688C77.55 65.9563 79.2937 69.5812 80.2937 73.5187ZM87.5 46.875C87.5 48.1061 87.2575 49.3252 86.7864 50.4627C86.3152 51.6001 85.6247 52.6336 84.7541 53.5041C83.8836 54.3747 82.8501 55.0652 81.7126 55.5364C80.5752 56.0075 79.3561 56.25 78.125 56.25C76.8938 56.25 75.6748 56.0075 74.5373 55.5364C73.3999 55.0652 72.3664 54.3747 71.4959 53.5041C70.6253 52.6336 69.9347 51.6001 69.4636 50.4627C68.9925 49.3252 68.75 48.1061 68.75 46.875C68.75 44.3886 69.7377 42.004 71.4959 40.2459C73.254 38.4877 75.6386 37.5 78.125 37.5C80.6114 37.5 82.996 38.4877 84.7541 40.2459C86.5123 42.004 87.5 44.3886 87.5 46.875ZM21.875 56.25C24.3614 56.25 26.746 55.2623 28.5041 53.5041C30.2623 51.746 31.25 49.3614 31.25 46.875C31.25 44.3886 30.2623 42.004 28.5041 40.2459C26.746 38.4877 24.3614 37.5 21.875 37.5C19.3886 37.5 17.004 38.4877 15.2459 40.2459C13.4877 42.004 12.5 44.3886 12.5 46.875C12.5 49.3614 13.4877 51.746 15.2459 53.5041C17.004 55.2623 19.3886 56.25 21.875 56.25ZM31.25 81.25C27.8 81.25 24.9187 78.4062 25.775 75.0625C27.1545 69.6847 30.284 64.9186 34.6705 61.5153C39.057 58.1119 44.4512 56.2648 50.0031 56.2648C55.5551 56.2648 60.9492 58.1119 65.3357 61.5153C69.7222 64.9186 72.8518 69.6847 74.2312 75.0625C75.0812 78.4062 72.2062 81.25 68.75 81.25H31.25Z" fill="black"/>
</svg>
