<svg width="40" height="40" viewBox="0 0 40 40" fill="none" xmlns="http://www.w3.org/2000/svg">
<path d="M23.3333 18.7667V10H28.3333V16.6667H31.6667V6.66667H23.3333V5H8.33333V31.6667H5V35H20.4333C19.0649 33.0464 18.3316 30.7186 18.3333 28.3333C18.3333 24.3667 20.3167 20.8833 23.3333 18.7667ZM16.6667 18.3333H20V21.6667H16.6667V18.3333ZM36.15 27.2833L38.05 25.6167L36.3833 22.7333L33.9667 23.55C33.4333 23.1 32.8333 22.75 32.1667 22.5L31.6667 20H28.3333L27.8333 22.4833C27.1667 22.7333 26.5667 23.0833 26.0333 23.5333L23.6167 22.7167L21.95 25.6L23.85 27.2667C23.7167 28.1 23.7167 28.5333 23.85 29.3667L21.95 31.0333L23.6167 33.9167L26.0333 33.1C26.5667 33.55 27.1667 33.9 27.8333 34.15L28.3333 36.6667H31.6667L32.1667 34.1833C32.8333 33.9333 33.4333 33.5833 33.9667 33.1333L36.3833 33.95L38.05 31.0667L36.15 29.4C36.2833 28.55 36.2833 28.1167 36.15 27.2833ZM30 31.6667C28.1667 31.6667 26.6667 30.1667 26.6667 28.3333C26.6667 26.5 28.1667 25 30 25C31.8333 25 33.3333 26.5 33.3333 28.3333C33.3333 30.1667 31.8333 31.6667 30 31.6667Z" fill="#9C9C9C"/>
</svg>
