<svg width="100" height="100" viewBox="0 0 100 100" fill="none" xmlns="http://www.w3.org/2000/svg">
<path d="M8.33331 37.5C8.33331 29.6416 8.33331 25.7166 10.775 23.275C13.2166 20.8333 17.1416 20.8333 25 20.8333H75C82.8583 20.8333 86.7833 20.8333 89.225 23.275C91.6666 25.7166 91.6667 29.6416 91.6667 37.5C91.6667 39.4625 91.6667 40.4458 91.0583 41.0583C90.4458 41.6666 89.4583 41.6666 87.5 41.6666H12.5C10.5375 41.6666 9.55415 41.6666 8.94165 41.0583C8.33331 40.4458 8.33331 39.4583 8.33331 37.5ZM8.33331 75C8.33331 82.8583 8.33331 86.7833 10.775 89.225C13.2166 91.6666 17.1416 91.6666 25 91.6666H75C82.8583 91.6666 86.7833 91.6666 89.225 89.225C91.6666 86.7833 91.6667 82.8583 91.6667 75V54.1666C91.6667 52.2041 91.6667 51.2208 91.0583 50.6083C90.4458 50 89.4583 50 87.5 50H12.5C10.5375 50 9.55415 50 8.94165 50.6083C8.33331 51.2208 8.33331 52.2083 8.33331 54.1666V75Z" fill="#32629A"/>
<path d="M29.1666 12.5V25V12.5ZM70.8333 12.5V25V12.5Z" fill="#32629A"/>
<path d="M29.1666 12.5V25M70.8333 12.5V25" stroke="black" stroke-width="2" stroke-linecap="round"/>
</svg>
