<svg width="100" height="100" viewBox="0 0 100 100" fill="none" xmlns="http://www.w3.org/2000/svg">
<path d="M45.9375 87.5V78.5417C42.257 77.7083 39.0806 76.1111 36.4084 73.75C33.7362 71.3889 31.7737 68.0556 30.5209 63.75L38.2292 60.625C39.2709 63.9583 40.8167 66.4931 42.8667 68.2292C44.9167 69.9653 47.607 70.8333 50.9375 70.8333C53.7848 70.8333 56.1987 70.1917 58.1792 68.9083C60.1598 67.625 61.1487 65.6278 61.1459 62.9167C61.1459 60.4861 60.382 58.5597 58.8542 57.1375C57.3264 55.7153 53.7848 54.1 48.2292 52.2917C42.257 50.4167 38.1598 48.1778 35.9375 45.575C33.7153 42.9722 32.6042 39.7944 32.6042 36.0417C32.6042 31.5278 34.0625 28.0208 36.9792 25.5208C39.8959 23.0208 42.882 21.5972 45.9375 21.25V12.5H54.2709V21.25C57.7431 21.8056 60.6084 23.0736 62.8667 25.0542C65.125 27.0347 66.7737 29.4472 67.8125 32.2917L60.1042 35.625C59.2709 33.4028 58.0903 31.7361 56.5625 30.625C55.0348 29.5139 52.9514 28.9583 50.3125 28.9583C47.257 28.9583 44.9306 29.6361 43.3334 30.9917C41.7362 32.3472 40.9375 34.0306 40.9375 36.0417C40.9375 38.3333 41.9792 40.1389 44.0625 41.4583C46.1459 42.7778 49.757 44.1667 54.8959 45.625C59.6875 47.0139 63.3167 49.2194 65.7834 52.2417C68.25 55.2639 69.482 58.7528 69.4792 62.7083C69.4792 67.6389 68.0209 71.3889 65.1042 73.9583C62.1875 76.5278 58.5764 78.125 54.2709 78.75V87.5H45.9375Z" fill="#228B22"/>
</svg>
