<svg width="40" height="40" viewBox="0 0 40 40" fill="none" xmlns="http://www.w3.org/2000/svg">
<path d="M12.8925 32.6725L24.42 20.96C24.6728 20.7044 24.8146 20.3595 24.8146 20C24.8146 19.6405 24.6728 19.2955 24.42 19.04L12.895 7.32749C12.6423 7.07035 12.5007 6.72426 12.5007 6.36374C12.5007 6.00322 12.6423 5.65713 12.895 5.39999C13.0184 5.27337 13.166 5.17274 13.3289 5.10403C13.4919 5.03532 13.6669 4.99992 13.8438 4.99992C14.0206 4.99992 14.1956 5.03532 14.3586 5.10403C14.5215 5.17274 14.6691 5.27337 14.7925 5.39999L26.3175 17.11C27.0748 17.8813 27.4991 18.919 27.4991 20C27.4991 21.0809 27.0748 22.1187 26.3175 22.89L14.7925 34.6C14.669 34.727 14.5213 34.828 14.3582 34.8969C14.195 34.9658 14.0196 35.0013 13.8425 35.0013C13.6654 35.0013 13.49 34.9658 13.3269 34.8969C13.1637 34.828 13.016 34.727 12.8925 34.6C12.6398 34.3429 12.4982 33.9968 12.4982 33.6362C12.4982 33.2757 12.6398 32.9296 12.8925 32.6725Z" fill="#32629A"/>
</svg>
