<svg width="32" height="32" viewBox="0 0 32 32" fill="none" xmlns="http://www.w3.org/2000/svg">
<path d="M3.67962 4.20927L6.18178 1.70711C6.57231 1.31658 7.20547 1.31658 7.59599 1.70711L13.0707 7.18178C13.4612 7.57231 13.4612 8.20547 13.0707 8.596L10.8013 10.8653C10.5219 11.1448 10.4526 11.5718 10.6293 11.9253C12.673 16.0127 15.9873 19.327 20.0747 21.3707C20.4282 21.5474 20.8552 21.4781 21.1347 21.1987L23.404 18.9293C23.7945 18.5388 24.4277 18.5388 24.8182 18.9293L30.2929 24.404C30.6834 24.7945 30.6834 25.4277 30.2929 25.8182L27.7907 28.3204C25.6794 30.4317 22.3368 30.6693 19.9481 28.8777L12.9619 23.6381C11.2184 22.3304 9.66955 20.7816 8.36191 19.0381L3.12226 12.0519C1.33072 9.66319 1.56827 6.32062 3.67962 4.20927Z" stroke="#33363F" stroke-width="2"/>
</svg>
